<svg xmlns="http://www.w3.org/2000/svg" width="256" height="256" viewBox="0 0 100 100"><rect width="100" height="100" rx="50" fill="#7d6ee7"></rect><path d="M45.63 33.17L45.63 33.17Q45.63 34.17 45.03 34.88Q44.43 35.59 43.65 35.94L43.65 35.94Q41.80 34.66 39.31 33.53Q36.83 32.39 32.85 32.39L32.85 32.39Q29.59 32.39 26.82 33.53Q24.05 34.66 21.99 36.87Q19.93 39.07 18.76 42.40Q17.59 45.74 17.59 50.07L17.59 50.07Q17.59 54.47 18.72 57.74Q19.86 61.01 21.88 63.21Q23.91 65.41 26.75 66.51Q29.59 67.61 33.07 67.61L33.07 67.61Q36.76 67.61 39.49 66.58Q42.23 65.55 44.07 64.13L44.07 64.13Q44.78 64.41 45.42 65.16Q46.06 65.90 46.06 66.90L46.06 66.90Q46.06 68.39 44.36 69.60L44.36 69.60Q42.72 70.73 39.88 71.62Q37.04 72.51 32.64 72.51L32.64 72.51Q28.17 72.51 24.33 71.09Q20.50 69.67 17.69 66.86Q14.89 64.06 13.26 59.87Q11.62 55.68 11.62 50.07L11.62 50.07Q11.62 44.46 13.29 40.24Q14.96 36.01 17.80 33.17Q20.64 30.33 24.44 28.91Q28.24 27.49 32.43 27.49L32.43 27.49Q35.34 27.49 37.79 27.99Q40.24 28.49 41.98 29.30Q43.72 30.12 44.67 31.15Q45.63 32.18 45.63 33.17ZM74.18 71.02L74.18 71.02Q73.82 71.37 72.83 71.66Q71.83 71.94 70.63 71.94L70.63 71.94Q69.28 71.94 68.21 71.55Q67.15 71.16 66.79 70.38L66.79 70.38Q65.87 68.53 64.63 65.62Q63.38 62.71 62.00 59.12Q60.61 55.54 59.16 51.56Q57.70 47.59 56.35 43.68Q55.01 39.78 53.80 36.12Q52.59 32.46 51.74 29.55L51.74 29.55Q52.17 28.98 53.02 28.49Q53.87 27.99 54.93 27.99L54.93 27.99Q56.28 27.99 56.92 28.63Q57.56 29.27 57.99 30.55L57.99 30.55Q61.18 39.85 64.09 48.51Q67.00 57.17 70.48 66.12L70.48 66.12L70.77 66.12Q72.33 62.07 74.00 57.49Q75.67 52.91 77.26 48.05Q78.86 43.18 80.39 38.21Q81.91 33.24 83.12 28.49L83.12 28.49Q84.04 27.99 85.54 27.99L85.54 27.99Q86.81 27.99 87.59 28.63Q88.38 29.27 88.38 30.55L88.38 30.55Q88.38 31.61 87.56 34.56Q86.74 37.50 85.46 41.41Q84.19 45.31 82.59 49.79Q80.99 54.26 79.43 58.38Q77.87 62.50 76.45 65.90Q75.03 69.31 74.18 71.02Z" fill="#fff"></path></svg>